<mxfile host="app.diagrams.net" agent="Mozilla/5.0 (Windows NT 10.0; Win64; x64) AppleWebKit/537.36 (KHTML, like Gecko) Chrome/138.0.0.0 Safari/537.36" version="28.0.9">
  <diagram name="PÃ¡gina-1" id="5l2dGNiINF_7KXSyhK-e">
    <mxGraphModel dx="727" dy="394" grid="1" gridSize="10" guides="1" tooltips="1" connect="1" arrows="1" fold="1" page="1" pageScale="1" pageWidth="827" pageHeight="1169" math="0" shadow="0">
      <root>
        <mxCell id="0" />
        <mxCell id="1" parent="0" />
        <mxCell id="RVckmzkD97EgDxdsqbsB-1" value="INICIO" style="ellipse;whiteSpace=wrap;html=1;" parent="1" vertex="1">
          <mxGeometry x="350" y="210" width="120" height="40" as="geometry" />
        </mxCell>
        <mxCell id="RVckmzkD97EgDxdsqbsB-2" value="inv={&quot;producto&quot;:&quot;pan&quot;,&quot;precio&quot;:1200}" style="rounded=0;whiteSpace=wrap;html=1;" parent="1" vertex="1">
          <mxGeometry x="320" y="280" width="180" height="60" as="geometry" />
        </mxCell>
        <mxCell id="RVckmzkD97EgDxdsqbsB-4" value="" style="endArrow=classic;html=1;rounded=0;exitX=0.5;exitY=1;exitDx=0;exitDy=0;entryX=0.5;entryY=0;entryDx=0;entryDy=0;" parent="1" source="RVckmzkD97EgDxdsqbsB-1" target="RVckmzkD97EgDxdsqbsB-2" edge="1">
          <mxGeometry width="50" height="50" relative="1" as="geometry">
            <mxPoint x="390" y="270" as="sourcePoint" />
            <mxPoint x="440" y="220" as="targetPoint" />
          </mxGeometry>
        </mxCell>
        <mxCell id="RVckmzkD97EgDxdsqbsB-5" value="if &quot;precio&quot; in inv:" style="rhombus;whiteSpace=wrap;html=1;" parent="1" vertex="1">
          <mxGeometry x="320" y="374.5" width="180" height="60" as="geometry" />
        </mxCell>
        <mxCell id="RVckmzkD97EgDxdsqbsB-8" value="" style="endArrow=classic;html=1;rounded=0;exitX=1;exitY=0.5;exitDx=0;exitDy=0;entryX=0.5;entryY=0;entryDx=0;entryDy=0;" parent="1" source="RVckmzkD97EgDxdsqbsB-5" target="4v6ZV3cSBNHBYUjKQDj7-9" edge="1">
          <mxGeometry relative="1" as="geometry">
            <mxPoint x="360" y="424.5" as="sourcePoint" />
            <mxPoint x="490" y="440" as="targetPoint" />
          </mxGeometry>
        </mxCell>
        <mxCell id="RVckmzkD97EgDxdsqbsB-9" value="Si" style="edgeLabel;resizable=0;html=1;;align=center;verticalAlign=middle;" parent="RVckmzkD97EgDxdsqbsB-8" connectable="0" vertex="1">
          <mxGeometry relative="1" as="geometry" />
        </mxCell>
        <mxCell id="RVckmzkD97EgDxdsqbsB-12" value="" style="endArrow=classic;html=1;rounded=0;exitX=0;exitY=0.5;exitDx=0;exitDy=0;entryX=0.5;entryY=0;entryDx=0;entryDy=0;" parent="1" source="RVckmzkD97EgDxdsqbsB-5" target="4v6ZV3cSBNHBYUjKQDj7-6" edge="1">
          <mxGeometry relative="1" as="geometry">
            <mxPoint x="430" y="454.5" as="sourcePoint" />
            <mxPoint x="390" y="519.5" as="targetPoint" />
          </mxGeometry>
        </mxCell>
        <mxCell id="RVckmzkD97EgDxdsqbsB-13" value="No" style="edgeLabel;resizable=0;html=1;;align=center;verticalAlign=middle;" parent="RVckmzkD97EgDxdsqbsB-12" connectable="0" vertex="1">
          <mxGeometry relative="1" as="geometry" />
        </mxCell>
        <mxCell id="RVckmzkD97EgDxdsqbsB-14" value="" style="endArrow=classic;html=1;rounded=0;exitX=0.5;exitY=1;exitDx=0;exitDy=0;entryX=0.5;entryY=0;entryDx=0;entryDy=0;" parent="1" source="RVckmzkD97EgDxdsqbsB-2" target="RVckmzkD97EgDxdsqbsB-5" edge="1">
          <mxGeometry width="50" height="50" relative="1" as="geometry">
            <mxPoint x="450" y="460" as="sourcePoint" />
            <mxPoint x="410" y="360" as="targetPoint" />
          </mxGeometry>
        </mxCell>
        <mxCell id="RVckmzkD97EgDxdsqbsB-15" value="FIN" style="ellipse;whiteSpace=wrap;html=1;" parent="1" vertex="1">
          <mxGeometry x="354" y="610" width="120" height="40" as="geometry" />
        </mxCell>
        <mxCell id="UZ0IgKjgWXEj56nT9QgP-2" value="" style="endArrow=classic;html=1;rounded=0;exitX=0.473;exitY=0.99;exitDx=0;exitDy=0;entryX=0.5;entryY=0;entryDx=0;entryDy=0;exitPerimeter=0;" parent="1" source="4v6ZV3cSBNHBYUjKQDj7-6" target="RVckmzkD97EgDxdsqbsB-15" edge="1">
          <mxGeometry width="50" height="50" relative="1" as="geometry">
            <mxPoint x="288.04" y="709.5" as="sourcePoint" />
            <mxPoint x="328.04" y="749.5" as="targetPoint" />
          </mxGeometry>
        </mxCell>
        <mxCell id="4v6ZV3cSBNHBYUjKQDj7-6" value="print(&quot;No hay precio&quot;)" style="shape=parallelogram;perimeter=parallelogramPerimeter;whiteSpace=wrap;html=1;fixedSize=1;" vertex="1" parent="1">
          <mxGeometry x="270" y="460" width="140" height="60" as="geometry" />
        </mxCell>
        <mxCell id="4v6ZV3cSBNHBYUjKQDj7-9" value="print(inv[&quot;precio&quot;])" style="shape=parallelogram;perimeter=parallelogramPerimeter;whiteSpace=wrap;html=1;fixedSize=1;" vertex="1" parent="1">
          <mxGeometry x="414" y="460" width="120" height="60" as="geometry" />
        </mxCell>
        <mxCell id="4v6ZV3cSBNHBYUjKQDj7-10" value="" style="endArrow=classic;html=1;rounded=0;exitX=0.5;exitY=1;exitDx=0;exitDy=0;entryX=0.5;entryY=0;entryDx=0;entryDy=0;" edge="1" parent="1" source="4v6ZV3cSBNHBYUjKQDj7-9" target="RVckmzkD97EgDxdsqbsB-15">
          <mxGeometry width="50" height="50" relative="1" as="geometry">
            <mxPoint x="400" y="660" as="sourcePoint" />
            <mxPoint x="450" y="610" as="targetPoint" />
          </mxGeometry>
        </mxCell>
      </root>
    </mxGraphModel>
  </diagram>
</mxfile>
